. 
  
http://www.torrentday.com/        :     The Hottest Private Tracker On The Net!!!
 
http://www.torrentday.com          :     Once & For all ;)


               www . TorrentDay . Com 

(((((((((((((= Enjoy No RAR releases =))))))))))))))))))))


...................................NFO:....................................

.[img]http://img593.imageshack.us/img593/5091/duedateblurayart.jpg[/img]

Due Date 2010 BDRip XVID AC3 HQ Hive-CM8



[b]Thx Hive

CM8 Doing It Right The First Time :D

Why download a touched up rip of a rip BRrip
Get the real deal BDRip
Enjoy

Source US Bluray

Video: 720x304 @bitrate 1800 2pass
Audio: DTS to AC3 5.1 @448
Sample: yes included
Subs: yes english in srt /subs[/b]
 
http://www.imdb.com/title/tt1231583/


General
Complete name                    : Due.Date.2010.BDRip.XVID.AC3.HQ.Hive-CM8.avi
Format                           : AVI
Format/Info                      : Audio Video Interleave
File size                        : 1.50 GiB
Duration                         : 1h 35mn
Overall bit rate                 : 2 260 Kbps
Writing application              : Nandub v1.0rc2
Writing library                  : Nandub build 1853/release

Video
ID                               : 0
Format                           : MPEG-4 Visual
Format profile                   : Advanced Simple@L5
Format settings, BVOP            : Yes
Format settings, QPel            : Yes
Format settings, GMC             : No warppoints
Format settings, Matrix          : Default (H.263)
Muxing mode                      : Packed bitstream
Codec ID                         : XVID
Codec ID/Hint                    : XviD
Duration                         : 1h 35mn
Bit rate                         : 1 802 Kbps
Width                            : 720 pixels
Height                           : 304 pixels
Display aspect ratio             : 2.40:1
Frame rate                       : 23.976 fps
Color space                      : YUV
Chroma subsampling               : 4:2:0
Bit depth                        : 8 bits
Scan type                        : Progressive
Bits/(Pixel*Frame)               : 0.343
Stream size                      : 1.20 GiB (80%)
Writing library                  : XviD 1.2.1 (UTC 2008-12-04)

Audio
ID                               : 1
Format                           : AC-3
Format/Info                      : Audio Coding 3
Mode extension                   : CM (complete main)
Codec ID                         : 2000
Duration                         : 1h 35mn
Bit rate mode                    : Constant
Bit rate                         : 448 Kbps
Channel(s)                       : 6 channels
Channel positions                : Front: L C R, Side: L R, LFE
Sampling rate                    : 48.0 KHz
Bit depth                        : 16 bits
Stream size                      : 305 MiB (20%)
Alignment                        : Split accross interleaves
Interleave, duration             : 42 ms (1.00 video frame)
Interleave, preload duration     : 500 ms



Robert Downey Jr. ... Peter Highman
Zach Galifianakis ... Ethan Tremblay / Ethan Chase
Michelle Monaghan ... Sarah Highman
Jamie Foxx ... Darryl
Juliette Lewis ... Heidi
Danny McBride ... Lonnie
RZA ... Airport Screener
Matt Walsh ... TSA Agent
Brody Stevens ... Limo Driver
Jakob Ulrich ... Patrick
Naiia Ulrich ... Alex
Todd Phillips ... Barry
Bobby Tisdale ... Carl 



High-strung father-to-be Peter Highman is forced to hitch a ride with aspiring 
actor Ethan Tremblay on a road trip in order to make it to his child's birth on time.



[img]http://img708.imageshack.us/img708/256/duduw.png[/img]
[img]http://img687.imageshack.us/img687/9769/dddudduuuudu.png[/img]
[img]http://img689.imageshack.us/img689/9277/ddduduuudu.png[/img]
[img]http://img832.imageshack.us/img832/1402/ddduuudu.png[/img]
[img]http://img197.imageshack.us/img197/8092/dduudu.png[/img]
[img]http://img695.imageshack.us/img695/86/52418534.png[/img]
[img]http://img683.imageshack.us/img683/33/dddudduduuuudu.png[/img]





Greetz

iNK,LUSi,,MAGNET,CLASSiFiED,THC,LEGi0N,T0XiC,IMAGiNE,ViSiON,WBZ,FLAWL3SS,NOVA
Vik,Rapeseed,D2U,SAFC,goldadvance,MEMORY100,KaN1vE,Unevano,Pinnz,Wayne,Mr Hive
and all P2P groups 
Great Work Guys :D